<?xml version="1.0" encoding="UTF-8" standalone="no"?>
<!-- Generator: Adobe Illustrator 19.0.0, SVG Export Plug-In . SVG Version: 6.00 Build 0)  -->

<svg
   version="1.1"
   id="Capa_1"
   x="0px"
   y="0px"
   viewBox="0 0 512 512"
   style="enable-background:new 0 0 512 512;"
   xml:space="preserve"
   sodipodi:docname="coffee-color.svg"
   inkscape:version="1.2.2 (b0a8486, 2022-12-01)"
   inkscape:export-filename="coffee-color@3.png"
   inkscape:export-xdpi="12"
   inkscape:export-ydpi="12"
   xmlns:inkscape="http://www.inkscape.org/namespaces/inkscape"
   xmlns:sodipodi="http://sodipodi.sourceforge.net/DTD/sodipodi-0.dtd"
   xmlns="http://www.w3.org/2000/svg"
   xmlns:svg="http://www.w3.org/2000/svg"><defs
   id="defs3444">
	
	
</defs><sodipodi:namedview
   id="namedview3442"
   pagecolor="#ffffff"
   bordercolor="#666666"
   borderopacity="1.0"
   inkscape:showpageshadow="2"
   inkscape:pageopacity="0.0"
   inkscape:pagecheckerboard="0"
   inkscape:deskcolor="#d1d1d1"
   showgrid="false"
   inkscape:zoom="0.71469597"
   inkscape:cx="288.93405"
   inkscape:cy="186.79271"
   inkscape:window-width="1440"
   inkscape:window-height="847"
   inkscape:window-x="0"
   inkscape:window-y="25"
   inkscape:window-maximized="1"
   inkscape:current-layer="Capa_1" />
<path
   style="fill:#f6a96c;stroke-width:11.33858268;stroke-dasharray:none;stroke:#000000;stroke-opacity:1;stroke-linejoin:round;stroke-linecap:round"
   d="m 218.434,144.9295 c -14.238,-9.492 -22.734,-25.371 -22.734,-42.48 0,-17.109001 8.496,-32.988 22.734,-42.480001 5.962,-3.97 9.375,-10.356 9.375,-17.519999 0,-7.164 -3.413,-13.55 -9.375,-17.52 l 16.64,-24.9610005 c 14.238,9.492 22.734,25.3710005 22.734,42.4799995 0,17.109 -8.496,32.988 -22.734,42.48 -5.962,3.97 -9.375,10.356 -9.375,17.520001 0,7.164 3.413,13.55 9.375,17.52 z"
   id="path3567" /><path
   style="fill:#f6a96c;stroke-width:11.33858268;stroke-dasharray:none;stroke:#000000;stroke-opacity:1;stroke-linejoin:round;stroke-linecap:round"
   d="m 143.427,144.961 c -14.238,-9.492 -22.734,-25.371 -22.734,-42.48 0,-17.109 8.496,-32.988 22.734,-42.48 5.962,-3.97 9.375,-10.356 9.375,-17.52 0,-7.164 -3.413,-13.55 -9.375,-17.52 L 160.067,0 c 14.238,9.492 22.734,25.371 22.734,42.48 0,17.109 -8.496,32.988 -22.734,42.48 -5.962,3.97 -9.375,10.356 -9.375,17.52 0,7.164 3.413,13.55 9.375,17.52 z"
   id="path3563" /><path
   style="fill:#000000;stroke:#000000;stroke-opacity:1;stroke-width:18.8976378;stroke-dasharray:none;stroke-linejoin:round;stroke-linecap:round"
   d="M407,391h-45.835v-30H407c41.353,0,75-33.647,75-75v-46h-75v-30h105v76  C512,343.891,464.891,391,407,391z"
   id="path3387" />
<path
   style="fill:#FF3636;stroke:#000000;stroke-opacity:1;stroke-width:18.8976378;stroke-dasharray:none;stroke-linejoin:round;stroke-linecap:round"
   d="M31,180v75c0,107.399,87.599,196,195,196s196-88.601,196-196v-75H31z"
   id="path3389" />

<path
   style="fill:#F6A96C;stroke-width:11.33858268;stroke-dasharray:none;stroke:#000000;stroke-opacity:1;stroke-linejoin:round;stroke-linecap:round"
   d="M293.427,144.961c-14.238-9.492-22.734-25.371-22.734-42.48s8.496-32.988,22.734-42.48  c5.962-3.97,9.375-10.356,9.375-17.52s-3.413-13.55-9.375-17.52L310.067,0c14.238,9.492,22.734,25.371,22.734,42.48  s-8.496,32.988-22.734,42.48c-5.962,3.97-9.375,10.356-9.375,17.52s3.413,13.55,9.375,17.52L293.427,144.961z"
   id="path3397" />


<path
   style="fill:#FDBF00;stroke:#000000;stroke-opacity:1;stroke-width:18.8976378;stroke-dasharray:none;stroke-linejoin:round;stroke-linecap:round"
   d="M0,421v15c0,41.4,34.6,76,76,76h301c41.4,0,75-34.6,75-76v-15H0z"
   id="path3407" />

<g
   id="g3411">
</g>
<g
   id="g3413">
</g>
<g
   id="g3415">
</g>
<g
   id="g3417">
</g>
<g
   id="g3419">
</g>
<g
   id="g3421">
</g>
<g
   id="g3423">
</g>
<g
   id="g3425">
</g>
<g
   id="g3427">
</g>
<g
   id="g3429">
</g>
<g
   id="g3431">
</g>
<g
   id="g3433">
</g>
<g
   id="g3435">
</g>
<g
   id="g3437">
</g>
<g
   id="g3439">
</g>
</svg>
