<?xml version="1.0" encoding="UTF-8" standalone="no"?>
<!-- Generator: Adobe Illustrator 19.0.0, SVG Export Plug-In . SVG Version: 6.00 Build 0)  -->

<svg
   version="1.1"
   id="Capa_1"
   x="0px"
   y="0px"
   viewBox="0 0 512 512"
   style="enable-background:new 0 0 512 512;"
   xml:space="preserve"
   sodipodi:docname="coffee-icon copy.svg"
   inkscape:version="1.2.2 (b0a8486, 2022-12-01)"
   xmlns:inkscape="http://www.inkscape.org/namespaces/inkscape"
   xmlns:sodipodi="http://sodipodi.sourceforge.net/DTD/sodipodi-0.dtd"
   xmlns="http://www.w3.org/2000/svg"
   xmlns:svg="http://www.w3.org/2000/svg"><defs
   id="defs591">
	
	

	
	
</defs><sodipodi:namedview
   id="namedview589"
   pagecolor="#ffffff"
   bordercolor="#666666"
   borderopacity="1.0"
   inkscape:showpageshadow="2"
   inkscape:pageopacity="0.0"
   inkscape:pagecheckerboard="0"
   inkscape:deskcolor="#d1d1d1"
   showgrid="false"
   inkscape:zoom="0.4609375"
   inkscape:cx="242.98305"
   inkscape:cy="257.08475"
   inkscape:window-width="1440"
   inkscape:window-height="847"
   inkscape:window-x="0"
   inkscape:window-y="25"
   inkscape:window-maximized="1"
   inkscape:current-layer="Capa_1" />
<path
   style="display:inline;fill:#000000"
   d="M 407,391 H 361.165 V 361 H 407 c 41.353,0 75,-33.647 75,-75 v -46 h -75 v -30 h 105 v 76 c 0,57.891 -47.109,105 -105,105 z"
   id="path534" />
<path
   style="display:inline;fill:#000000"
   d="m 31,180 v 75 c 0,107.399 87.599,196 195,196 107.401,0 196,-88.601 196,-196 v -75 z"
   id="path536" />
<path
   style="display:inline;fill:#000000"
   d="m 143.427,144.961 c -14.238,-9.492 -22.734,-25.371 -22.734,-42.48 0,-17.109 8.496,-32.988 22.734,-42.48 5.962,-3.97 9.375,-10.356 9.375,-17.52 0,-7.164 -3.413,-13.55 -9.375,-17.52 L 160.067,0 c 14.238,9.492 22.734,25.371 22.734,42.48 0,17.109 -8.496,32.988 -22.734,42.48 -5.962,3.97 -9.375,10.356 -9.375,17.52 0,7.164 3.413,13.55 9.375,17.52 z"
   id="path538" /><path
   style="display:inline;fill:#000000"
   d="m 257.8,42.599 c 0,17.1 -8.399,32.999 -22.8,42.299 -5.4,3.301 -8.399,9.001 -9,15 -0.3,0.901 -0.3,1.802 -0.3,2.701 0,0.901 0,1.8 0.3,2.701 0.601,5.999 3.9,11.4 9,14.7 l -9,13.5 -7.5,11.398 c -14.399,-9.3 -22.8,-25.199 -22.8,-42.299 0,-17.1 8.401,-32.999 22.8,-42.599 3.6,-2.401 6,-5.4 7.5,-9 1.199,-2.701 1.8,-5.402 1.8,-8.401 0,-2.999 -0.601,-6 -1.8,-8.699 -1.5,-3.6 -3.9,-6.601 -7.5,-9.001 L 226,13.5 235,0 c 14.401,9.6 22.8,25.499 22.8,42.599 z"
   id="path540" />
<path
   style="display:inline;fill:#000000"
   d="m 293.427,144.961 c -14.238,-9.492 -22.734,-25.371 -22.734,-42.48 0,-17.109 8.496,-32.988 22.734,-42.48 5.962,-3.97 9.375,-10.356 9.375,-17.52 0,-7.164 -3.413,-13.55 -9.375,-17.52 L 310.067,0 c 14.238,9.492 22.734,25.371 22.734,42.48 0,17.109 -8.496,32.988 -22.734,42.48 -5.962,3.97 -9.375,10.356 -9.375,17.52 0,7.164 3.413,13.55 9.375,17.52 z"
   id="path544" />


<path
   style="display:inline;fill:#000000"
   d="m 0,421 v 15 c 0,41.4 34.6,76 76,76 h 301 c 41.4,0 75,-34.6 75,-76 v -15 z"
   id="path554" />
















</svg>
