<?xml version="1.0" encoding="UTF-8" standalone="no"?>
<svg
   viewBox="0 0 1024 1024"
   version="1.1"
   id="svg437"
   sodipodi:docname="icon.svg"
   inkscape:version="1.2.2 (b0a8486, 2022-12-01)"
   xml:space="preserve"
   xmlns:inkscape="http://www.inkscape.org/namespaces/inkscape"
   xmlns:sodipodi="http://sodipodi.sourceforge.net/DTD/sodipodi-0.dtd"
   xmlns:xlink="http://www.w3.org/1999/xlink"
   xmlns="http://www.w3.org/2000/svg"
   xmlns:svg="http://www.w3.org/2000/svg"
   xmlns:bx="https://boxy-svg.com"><sodipodi:namedview
     id="namedview439"
     pagecolor="#ffffff"
     bordercolor="#666666"
     borderopacity="1.0"
     inkscape:showpageshadow="2"
     inkscape:pageopacity="0.0"
     inkscape:pagecheckerboard="0"
     inkscape:deskcolor="#d1d1d1"
     showgrid="false"
     inkscape:zoom="0.28959094"
     inkscape:cx="183.01678"
     inkscape:cy="488.62026"
     inkscape:window-width="1440"
     inkscape:window-height="847"
     inkscape:window-x="0"
     inkscape:window-y="25"
     inkscape:window-maximized="1"
     inkscape:current-layer="svg437"
     showguides="false"><sodipodi:guide
       position="512,719.84483"
       orientation="-1,0"
       id="guide3567"
       inkscape:locked="false"
       inkscape:label=""
       inkscape:color="rgb(0,134,229)" /></sodipodi:namedview><defs
     id="defs417"><filter
       id="shadow"
       bx:pinned="true"
       x="0"
       y="0"
       width="1"
       height="1"><title
         id="title370">Drop Shadow</title><feDropShadow
         result="drop-shadow-0"
         in="SourceGraphic"
         style="flood-opacity: 0.3;"
         stdDeviation="10"
         dx="0"
         dy="10" /></filter><bx:guide
       x="-10"
       y="100"
       angle="90" /><bx:guide
       x="100"
       y="-10"
       angle="0" /><bx:guide
       x="924"
       y="-10"
       angle="0" /><bx:guide
       x="-10"
       y="924"
       angle="90" /><clipPath
       id="clip-0"><path
         style="stroke-width: 3px; fill: rgb(255, 255, 255);"
         d="M 100 724 L 100 300 C 100 185.001 170 99.995 300.026 100 L 724 99.995 C 854 100 924 185.001 924 300 L 924 724 C 924 839.001 854 923.995 724 924 L 300.026 924 C 170 924 100 839.001 100 724 Z"
         id="path375"><title
           id="title373">Icon Mask</title></path></clipPath><symbol
       id="symbol-0"
       viewBox="0 0 1024 1024"
       bx:pinned="true"><title
         id="title378">App Icon Guides</title><g
         style=""
         transform="matrix(1, 0, 0, 1, 0, 0)"
         id="g414"><title
           id="title380">App Icon Guides</title><path
           style="fill: none; stroke: rgb(145, 145, 145); stroke-width: 3px;"
           d="M 0 739.001 L 0 285.001 C 0 135.001 112 0 284.999 0 L 739.001 0 C 912 0 1024 135.001 1024 285.001 L 1024 739.001 C 1024 889.001 912 1024 739.001 1024 L 284.999 1024 C 112 1024 0 889.001 0 739.001 Z"
           id="path384"><title
             id="title382">Outer Bounding Box</title></path><path
           style="stroke: rgb(145, 145, 145); fill: none; stroke-width: 3px;"
           d="M 50 739.001 L 50 285.001 C 50 162 140 50 284.999 50 L 739.001 50 C 884.001 50 974 162 974 285.001 L 974 739.001 C 974 862 884.001 974 739.001 974 L 284.999 974 C 140 974 50 862 50 739.001 Z"
           id="path388"><title
             id="title386">Inner Bounding Box</title></path><path
           style="fill: none; stroke: rgb(255, 0, 0); stroke-width: 3px;"
           d="M 100 724.005 L 100 300.005 C 100 185.006 170 100 300.026 100.005 L 724 100 C 854 100.005 924 185.006 924 300.005 L 924 724.005 C 924 839.006 854 924 724 924.005 L 300.026 924.005 C 170 924.005 100 839.006 100 724.005 Z"
           id="path392"><title
             id="title390">Icon Grid Bounding Box</title></path><path
           style="fill: none; stroke: rgb(255, 0, 0);"
           d="M 154.017 870.001 L 870.001 870.001 L 870.001 154.014 L 154.017 154.014 L 154.017 870.001 Z M 154.017 870.001 L 870.001 154.014 L 154.017 870.001 Z M 100 511.995 L 924 511.995 L 100 511.995 Z M 100 669.36 L 924 669.36 L 100 669.36 Z M 924 354.631 L 100 354.631 L 924 354.631 Z M 669.365 99.995 L 669.365 923.995 L 669.365 99.995 Z M 354.635 923.995 L 354.635 99.995 L 354.635 923.995 Z M 512 99.995 L 512 923.995 L 512 99.995 Z M 154.017 154.014 L 870.001 870.001 L 154.017 154.014 Z"
           id="path396"><title
             id="title394">Icon Grid</title></path><circle
           style="fill: none; stroke: rgba(255, 0, 0, 0.6);"
           cx="512"
           cy="511.995"
           r="157.397"
           id="circle400"><title
             id="title398">Grid Circle 1</title></circle><circle
           style="fill: none; stroke: rgba(255, 0, 0, 0.6);"
           cx="512"
           cy="511.995"
           r="222.577"
           id="circle404"><title
             id="title402">Grid Circle 2</title></circle><circle
           style="fill: none; stroke: rgba(255, 0, 0, 0.6);"
           cx="512"
           cy="511.995"
           r="358.001"
           id="circle408"><title
             id="title406">Grid Circle 3</title></circle><path
           d="M 1084.343 548.001 L 143.343 548.001 C 114.624 548.001 91.343 524.72 91.343 496.001 C 91.343 467.282 114.624 444.001 143.343 444.001 L 1084.343 444.001 C 1113.062 444.001 1136.343 467.282 1136.343 496.001 C 1136.343 524.72 1113.062 548.001 1084.343 548.001 Z M 1136.3 496.039 L 91.3 495.961"
           style="stroke-width: 5px; fill: rgba(0, 195, 255, 0.37); stroke: rgb(0, 119, 255); stroke-dasharray: 24, 10;"
           transform="matrix(0.430444, -0.902617, 0.902617, 0.430444, -98.093403, 836.54613)"
           id="path412"><title
             id="title410">Tool Angle</title></path></g></symbol><filter
       inkscape:label="Film Grain"
       inkscape:menu="Image Effects"
       inkscape:menu-tooltip="Adds a small scale graininess"
       style="color-interpolation-filters:sRGB;"
       id="filter30047"
       x="0"
       y="0"
       width="1"
       height="1"><feTurbulence
         type="fractalNoise"
         numOctaves="3"
         baseFrequency="0.040000000000000001 100"
         seed="0"
         result="result0"
         id="feTurbulence30037" /><feColorMatrix
         result="result4"
         values="0"
         type="saturate"
         id="feColorMatrix30039" /><feComposite
         in="SourceGraphic"
         in2="result4"
         operator="arithmetic"
         k1="0.33000000000000002"
         k2="0.69999999999999996"
         k3="0.10000000000000001"
         result="result2"
         id="feComposite30041" /><feBlend
         result="result5"
         mode="normal"
         in="result2"
         in2="SourceGraphic"
         id="feBlend30043" /><feComposite
         in="result5"
         in2="SourceGraphic"
         operator="in"
         result="result3"
         id="feComposite30045" /></filter><filter
       x="-0.014563108"
       y="-0.014563107"
       width="1.0291262"
       height="1.0412621"
       filterUnits="objectBoundingBox"
       id="filter-3"><feOffset
         dx="0"
         dy="10"
         in="SourceAlpha"
         result="shadowOffsetOuter1"
         id="feOffset836" /><feGaussianBlur
         stdDeviation="5"
         in="shadowOffsetOuter1"
         result="shadowBlurOuter1"
         id="feGaussianBlur838" /><feColorMatrix
         values="0 0 0 0 0   0 0 0 0 0   0 0 0 0 0  0 0 0 0.3 0"
         type="matrix"
         in="shadowBlurOuter1"
         id="feColorMatrix840" /></filter><filter
       inkscape:label="Film Grain"
       inkscape:menu="Image Effects"
       inkscape:menu-tooltip="Adds a small scale graininess"
       style="color-interpolation-filters:sRGB;"
       id="filter1384"
       x="0"
       y="0"
       width="1"
       height="1"><feTurbulence
         type="fractalNoise"
         numOctaves="3"
         baseFrequency="20.0836820083682"
         seed="0"
         result="result0"
         id="feTurbulence1374" /><feColorMatrix
         result="result4"
         values="0"
         type="saturate"
         id="feColorMatrix1376" /><feComposite
         in="SourceGraphic"
         in2="result4"
         operator="arithmetic"
         k1="1.25"
         k2="0.5"
         k3="0.5"
         result="result2"
         id="feComposite1378" /><feBlend
         result="result5"
         mode="normal"
         in="result2"
         in2="SourceGraphic"
         id="feBlend1380" /><feComposite
         in="result5"
         in2="SourceGraphic"
         operator="in"
         result="result3"
         id="feComposite1382" /></filter></defs><path
     d="m 923.99999,351.62706 c 0,-9.78197 0,-19.56493 -0.056,-29.3479 -0.049,-8.24097 -0.1441,-16.47994 -0.368,-24.71691 -0.484,-17.95293 -1.543,-36.05987 -4.736,-53.8128 -3.238,-18.00894 -8.5259,-34.76987 -16.8589,-51.13282 -8.1919,-16.08294 -18.8928,-30.79988 -31.6607,-43.55884 -12.765,-12.75895 -27.4858,-23.45291 -43.5747,-31.63988 -16.3799,-8.33497 -33.1588,-13.62095 -51.1877,-16.85794 -17.7548,-3.187986 -35.8667,-4.244976 -53.8195,-4.729976 -8.243,-0.223 -16.4859,-0.317 -24.7309,-0.368 -9.7879,-0.06 -19.5758,-0.055 -29.3637,-0.055 l -113.6472,-0.407 h -84.99938 l -111.63618,0.407 c -9.80692,0 -19.61385,-0.005 -29.42078,0.055 -8.26194,0.051 -16.51988,0.145 -24.77881,0.368 -17.99487,0.485 -36.14774,1.54299 -53.9446,4.734976 -18.05287,3.23599 -34.85675,8.51997 -51.25862,16.84894 -16.12289,8.18797 -30.87578,18.88293 -43.66768,31.64388 -12.78991,12.75796 -23.51083,27.4719 -31.71777,43.55184 -8.35594,16.37095 -13.6539,33.14188 -16.89987,51.16082 -3.19598,17.74593 -4.25497,35.84687 -4.74197,53.7918 -0.222,8.23797 -0.31799,16.47694 -0.36799,24.71691 -0.06,9.78397 -0.563,21.93692 -0.563,31.71989 v 110.0896 85.90968 l 0.508,112.42859 c 0,9.79597 -0.004,19.59193 0.055,29.3879 0.05,8.25197 0.14599,16.50194 0.36899,24.75091 0.486,17.97593 1.54699,36.10887 4.74597,53.8858 3.24497,18.03293 8.54194,34.81787 16.89087,51.20181 8.20794,16.10595 18.93086,30.84189 31.72177,43.61885 12.7909,12.77695 27.53979,23.48491 43.65968,31.68388 16.41187,8.34597 33.22375,13.63895 51.28761,16.87994 17.78887,3.19299 35.93574,4.25198 53.92361,4.73698 8.25893,0.223 16.51787,0.318 24.77981,0.368 9.80693,0.059 19.61286,0.059 29.41978,0.059 h 112.64517 85.21039 112.4272 c 9.7879,0 19.5758,0 29.3637,-0.059 8.245,-0.05 16.4879,-0.145 24.7309,-0.368 17.9598,-0.486 36.0777,-1.54599 53.8406,-4.74098 18.0178,-3.24099 34.7887,-8.53197 51.1596,-16.87294 16.0919,-8.19797 30.8157,-18.90793 43.5817,-31.68688 12.7659,-12.77496 23.4658,-27.5089 31.6577,-43.61185 8.338,-16.39194 13.6259,-33.18488 16.8659,-51.22981 3.19,-17.76993 4.248,-35.89587 4.733,-53.8648 0.223,-8.24997 0.318,-16.49994 0.367,-24.75091 0.056,-9.79597 0.056,-19.59193 0.056,-29.3879 0,0 0,-110.44359 0,-112.42859 v -85.99968 c 0,-1.466 0,-112.37159 0,-112.37159"
     id="use848"
     style="fill:#000000;fill-opacity:1;filter:url(#filter-3)"
     inkscape:label="shadow"
     sodipodi:insensitive="true" /><path
     d="m 923.99997,356.62707 c 0,-9.78197 0,-19.56493 -0.056,-29.3479 -0.049,-8.24097 -0.1441,-16.47994 -0.368,-24.71691 -0.484,-17.95293 -1.543,-36.05987 -4.736,-53.8128 -3.238,-18.00894 -8.5259,-34.76987 -16.8589,-51.13282 -8.1919,-16.08294 -18.8928,-30.79988 -31.6607,-43.55884 -12.765,-12.75895 -27.4858,-23.45291 -43.5747,-31.63988 -16.3799,-8.33497 -33.1588,-13.62095 -51.1877,-16.85794 -17.7548,-3.18799 -35.8667,-4.24498 -53.8195,-4.72998 -8.243,-0.223 -16.4859,-0.317 -24.7309,-0.368 -9.7879,-0.06 -19.5758,-0.055 -29.3637,-0.055 L 553.99667,100 h -84.99938 l -111.63618,0.407 c -9.80692,0 -19.61385,-0.005 -29.42078,0.055 -8.26194,0.051 -16.51988,0.145 -24.77881,0.368 -17.99487,0.485 -36.14774,1.54299 -53.9446,4.73498 -18.05287,3.23599 -34.85675,8.51997 -51.25862,16.84894 -16.12289,8.18797 -30.87578,18.88293 -43.66768,31.64388 -12.78991,12.75796 -23.51083,27.4719 -31.71777,43.55184 -8.35594,16.37095 -13.6539,33.14188 -16.89987,51.16082 -3.19598,17.74593 -4.25497,35.84687 -4.74197,53.7918 -0.222,8.23797 -0.31799,16.47694 -0.36799,24.71691 -0.06,9.78397 -0.563,21.93692 -0.563,31.71989 v 110.0896 85.90968 l 0.508,112.42859 c 0,9.79597 -0.004,19.59193 0.055,29.3879 0.05,8.25197 0.14599,16.50194 0.36899,24.75091 0.486,17.97593 1.547,36.10887 4.74598,53.8858 3.24497,18.03293 8.54193,34.81787 16.89086,51.20181 8.20794,16.10595 18.93087,30.84189 31.72177,43.61885 12.7909,12.77695 27.5398,23.48491 43.65968,31.68388 16.41187,8.34597 33.22375,13.63895 51.28761,16.87994 17.78887,3.19299 35.93574,4.25198 53.92361,4.73698 8.25893,0.223 16.51787,0.318 24.77981,0.368 9.80693,0.059 19.61286,0.059 29.41978,0.059 h 112.64517 85.21039 112.4272 c 9.78791,0 19.57581,0 29.36371,-0.059 8.24499,-0.05 16.4879,-0.145 24.7309,-0.368 17.9598,-0.486 36.0777,-1.54599 53.8406,-4.74098 18.0178,-3.24099 34.7887,-8.53197 51.1596,-16.87294 16.09189,-8.19797 30.8157,-18.90793 43.5817,-31.68688 12.7659,-12.77496 23.46579,-27.5089 31.65769,-43.61185 8.338,-16.39194 13.6259,-33.18488 16.8659,-51.22981 3.19001,-17.76993 4.24801,-35.89587 4.733,-53.8648 0.223,-8.24997 0.318,-16.49994 0.367,-24.75091 0.056,-9.79597 0.056,-19.59193 0.056,-29.3879 0,0 0,-110.44359 0,-112.42859 v -85.99968 c 0,-1.466 0,-112.37159 0,-112.37159"
     id="use850"
     style="display:inline;fill:#323232;fill-opacity:1;fill-rule:evenodd"
     inkscape:label="background" /><path
     d="m 923.99997,356.62707 c 0,-9.78197 0,-19.56493 -0.056,-29.3479 -0.049,-8.24097 -0.1441,-16.47994 -0.368,-24.71691 -0.484,-17.95293 -1.543,-36.05987 -4.736,-53.8128 -3.238,-18.00894 -8.5259,-34.76987 -16.8589,-51.13282 -8.1919,-16.08294 -18.8928,-30.79988 -31.6607,-43.55884 -12.765,-12.75895 -27.4858,-23.45291 -43.5747,-31.63988 -16.3799,-8.33497 -33.1588,-13.62095 -51.1877,-16.85794 -17.7548,-3.18799 -35.8667,-4.24498 -53.8195,-4.72998 -8.243,-0.223 -16.4859,-0.317 -24.7309,-0.368 -9.7879,-0.06 -19.5758,-0.055 -29.3637,-0.055 L 553.99667,100 h -84.99938 l -111.63618,0.407 c -9.80692,0 -19.61385,-0.005 -29.42078,0.055 -8.26194,0.051 -16.51988,0.145 -24.77881,0.368 -17.99487,0.485 -36.14774,1.54299 -53.9446,4.73498 -18.05287,3.23599 -34.85675,8.51997 -51.25862,16.84894 -16.12289,8.18797 -30.87578,18.88293 -43.66768,31.64388 -12.78991,12.75796 -23.51083,27.4719 -31.71777,43.55184 -8.35594,16.37095 -13.6539,33.14188 -16.89987,51.16082 -3.19598,17.74593 -4.25497,35.84687 -4.74197,53.7918 -0.222,8.23797 -0.31799,16.47694 -0.36799,24.71691 -0.06,9.78397 -0.563,21.93692 -0.563,31.71989 v 110.0896 85.90968 l 0.508,112.42859 c 0,9.79597 -0.004,19.59193 0.055,29.3879 0.05,8.25197 0.14599,16.50194 0.36899,24.75091 0.486,17.97593 1.547,36.10887 4.74598,53.8858 3.24497,18.03293 8.54193,34.81787 16.89086,51.20181 8.20794,16.10595 18.93087,30.84189 31.72177,43.61885 12.7909,12.77695 27.5398,23.48491 43.65968,31.68388 16.41187,8.34597 33.22375,13.63895 51.28761,16.87994 17.78887,3.19299 35.93574,4.25198 53.92361,4.73698 8.25893,0.223 16.51787,0.318 24.77981,0.368 9.80693,0.059 19.61286,0.059 29.41978,0.059 h 112.64517 85.21039 112.4272 c 9.78791,0 19.57581,0 29.36371,-0.059 8.24499,-0.05 16.4879,-0.145 24.7309,-0.368 17.9598,-0.486 36.0777,-1.54599 53.8406,-4.74098 18.0178,-3.24099 34.7887,-8.53197 51.1596,-16.87294 16.09189,-8.19797 30.8157,-18.90793 43.5817,-31.68688 12.7659,-12.77496 23.46579,-27.5089 31.65769,-43.61185 8.338,-16.39194 13.6259,-33.18488 16.8659,-51.22981 3.19001,-17.76993 4.24801,-35.89587 4.733,-53.8648 0.223,-8.24997 0.318,-16.49994 0.367,-24.75091 0.056,-9.79597 0.056,-19.59193 0.056,-29.3879 0,0 0,-110.44359 0,-112.42859 v -85.99968 c 0,-1.466 0,-112.37159 0,-112.37159"
     id="path2838"
     style="display:inline;fill:#323232;fill-opacity:1;fill-rule:evenodd;filter:url(#filter1384);opacity:0.54485777"
     inkscape:label="background" /><use
     width="1024"
     height="1024"
     style="display:none"
     xlink:href="#symbol-0"
     id="use435"
     inkscape:label="template"><title
       id="title433">App Icon Guides</title></use><g
     id="g818"
     transform="translate(285.31616,256)"
     inkscape:transform-center-x="-31.148421"><path
       style="fill:#b20000"
       d="M 407,391 H 361.165 V 361 H 407 c 41.353,0 75,-33.647 75,-75 v -46 h -75 v -30 h 105 v 76 c 0,57.891 -47.109,105 -105,105 z"
       id="path732" /><path
       style="fill:#ff3636"
       d="m 31,180 v 75 c 0,107.399 87.599,196 195,196 107.401,0 196,-88.601 196,-196 v -75 z"
       id="path734" /><g
       id="g740">
	<path
   style="fill:#ffbd86"
   d="m 143.427,144.961 c -14.238,-9.492 -22.734,-25.371 -22.734,-42.48 0,-17.109 8.496,-32.988 22.734,-42.48 5.962,-3.97 9.375,-10.356 9.375,-17.52 0,-7.164 -3.413,-13.55 -9.375,-17.52 L 160.067,0 c 14.238,9.492 22.734,25.371 22.734,42.48 0,17.109 -8.496,32.988 -22.734,42.48 -5.962,3.97 -9.375,10.356 -9.375,17.52 0,7.164 3.413,13.55 9.375,17.52 z"
   id="path736" />
	<path
   style="fill:#ffbd86"
   d="m 257.8,42.599 c 0,17.1 -8.399,32.999 -22.8,42.299 -5.4,3.301 -8.399,9.001 -9,15 -0.3,0.901 -0.3,1.802 -0.3,2.701 0,0.901 0,1.8 0.3,2.701 0.601,5.999 3.9,11.4 9,14.7 l -9,13.5 -7.5,11.398 c -14.399,-9.3 -22.8,-25.199 -22.8,-42.299 0,-17.1 8.401,-32.999 22.8,-42.599 3.6,-2.401 6,-5.4 7.5,-9 1.199,-2.701 1.8,-5.402 1.8,-8.401 0,-2.999 -0.601,-6 -1.8,-8.699 -1.5,-3.6 -3.9,-6.601 -7.5,-9.001 L 226,13.5 235,0 c 14.401,9.6 22.8,25.499 22.8,42.599 z"
   id="path738" />
</g><path
       style="fill:#f6a96c"
       d="m 293.427,144.961 c -14.238,-9.492 -22.734,-25.371 -22.734,-42.48 0,-17.109 8.496,-32.988 22.734,-42.48 5.962,-3.97 9.375,-10.356 9.375,-17.52 0,-7.164 -3.413,-13.55 -9.375,-17.52 L 310.067,0 c 14.238,9.492 22.734,25.371 22.734,42.48 0,17.109 -8.496,32.988 -22.734,42.48 -5.962,3.97 -9.375,10.356 -9.375,17.52 0,7.164 3.413,13.55 9.375,17.52 z"
       id="path742" /><path
       style="fill:#f40000"
       d="m 422,180 v 75 c 0,107.399 -88.599,196 -196,196 V 180 Z"
       id="path744" /><g
       id="g750">
	<path
   style="fill:#f6a96c"
   d="m 235,120 -9,13.5 v -28.2 c 0.601,5.999 3.9,11.4 9,14.7 z"
   id="path746" />
	<path
   style="fill:#f6a96c"
   d="m 257.8,42.599 c 0,17.1 -8.399,32.999 -22.8,42.299 -5.4,3.301 -8.399,9.001 -9,15 V 51 c 1.199,-2.701 1.8,-5.402 1.8,-8.401 0,-2.999 -0.601,-6 -1.8,-8.699 V 13.5 L 235,0 c 14.401,9.6 22.8,25.499 22.8,42.599 z"
   id="path748" />
</g><path
       style="fill:#fdbf00"
       d="m 0,421 v 15 c 0,41.4 34.6,76 76,76 h 301 c 41.4,0 75,-34.6 75,-76 v -15 z"
       id="path752" /><path
       style="fill:#ff9f00"
       d="m 452,421 v 15 c 0,41.4 -33.6,76 -75,76 H 226 v -91 z"
       id="path754" /><g
       id="g756">
</g><g
       id="g758">
</g><g
       id="g760">
</g><g
       id="g762">
</g><g
       id="g764">
</g><g
       id="g766">
</g><g
       id="g768">
</g><g
       id="g770">
</g><g
       id="g772">
</g><g
       id="g774">
</g><g
       id="g776">
</g><g
       id="g778">
</g><g
       id="g780">
</g><g
       id="g782">
</g><g
       id="g784">
</g></g></svg>
